HIERARCHY
ROOT Hips
{
	OFFSET 0 0 0
	CHANNELS 6 Xposition Yposition Zposition Yrotation Xrotation Zrotation
	JOINT Spine
	{
		OFFSET -0 8.65952 -2.76022
		CHANNELS 3 Yrotation Xrotation Zrotation
		JOINT Spine1
		{
			OFFSET -0 10.0202 0
			CHANNELS 3 Yrotation Xrotation Zrotation
			JOINT Spine2
			{
				OFFSET -0 10.0202 0
				CHANNELS 3 Yrotation Xrotation Zrotation
				JOINT Spine3
				{
					OFFSET -0 10.0202 0
					CHANNELS 3 Yrotation Xrotation Zrotation
					JOINT Neck
					{
						OFFSET -0 15.4767 3.76022
						CHANNELS 3 Yrotation Xrotation Zrotation
						JOINT Head
						{
							OFFSET -0 10.8244 0
							CHANNELS 3 Yrotation Xrotation Zrotation
							End Site
							{
								OFFSET -0 15 0
							}
						}
					}
					JOINT LeftShoulder
					{
						OFFSET 1.80407 4.18001 3.60813
						CHANNELS 3 Yrotation Xrotation Zrotation
						JOINT LeftArm
						{
							OFFSET 16.4139 0 0
							CHANNELS 3 Yrotation Xrotation Zrotation
							JOINT LeftForeArm
							{
								OFFSET 25.1761 0 0
								CHANNELS 3 Yrotation Xrotation Zrotation
								JOINT LeftHand
								{
									OFFSET 25.1703 0 0
									CHANNELS 3 Yrotation Xrotation Zrotation
									End Site
									{
										OFFSET 15 0 0
									}
								}
							}
						}
					}
					JOINT RightShoulder
					{
						OFFSET -1.80407 4.18001 3.60813
						CHANNELS 3 Yrotation Xrotation Zrotation
						JOINT RightArm
						{
							OFFSET -16.4139 0 0
							CHANNELS 3 Yrotation Xrotation Zrotation
							JOINT RightForeArm
							{
								OFFSET -25.1761 0 0
								CHANNELS 3 Yrotation Xrotation Zrotation
								JOINT RightHand
								{
									OFFSET -25.1703 0 0
									CHANNELS 3 Yrotation Xrotation Zrotation
									End Site
									{
										OFFSET -15 0 0
									}
								}
							}
						}
					}
				}
			}
		}
	}
	JOINT LeftUpLeg
	{
		OFFSET 10.8244 -3.60813 2
		CHANNELS 3 Yrotation Xrotation Zrotation
		JOINT LeftLeg
		{
			OFFSET -0 -40.8394 2.52569
			CHANNELS 3 Yrotation Xrotation Zrotation
			JOINT LeftFoot
			{
				OFFSET -0 -43.1743 -2.52569
				CHANNELS 3 Yrotation Xrotation Zrotation
				JOINT LeftToeBase
				{
					OFFSET -0 -6.9655 16.2366
					CHANNELS 3 Yrotation Xrotation Zrotation
					End Site
					{
						OFFSET -0 0 5
					}
				}
			}
		}
	}
	JOINT RightUpLeg
	{
		OFFSET -10.8244 -3.60813 2
		CHANNELS 3 Yrotation Xrotation Zrotation
		JOINT RightLeg
		{
			OFFSET -0 -40.8394 2.52569
			CHANNELS 3 Yrotation Xrotation Zrotation
			JOINT RightFoot
			{
				OFFSET -0 -43.1743 -2.52569
				CHANNELS 3 Yrotation Xrotation Zrotation
				JOINT RightToeBase
				{
					OFFSET -0 -6.9655 16.2366
					CHANNELS 3 Yrotation Xrotation Zrotation
					End Site
					{
						OFFSET -0 0 5
					}
				}
			}
		}
	}
}
MOTION
Frames: 12
Frame Time: 0.00833333
0 96.622904 0 0 0 0 0 0 0 0 0 0 0 0 0 0 0 0 0 0 0 0 0 0 0 0 0 0 0 0 0 0 0 0 0 0 0 0 0 0 0 0 0 0 0 0 0 0 0 0 0 0 0 0 0 0 0 0 0 0 0 0 0 0 0 0 0 0 0 0 0 0
-28.661478 92.436609 -77.788306 -36.186480 -0.273731 2.249563 1.170065 4.205074 0.396247 1.076770 4.239869 0.222403 0.408632 4.125851 -0.018464 0.092446 4.062533 -0.211903 14.252746 8.873759 -8.042769 6.114842 -1.410725 -3.788054 1.356764 6.702816 0.010499 -37.645391 -8.699247 -14.548108 -71.108706 -0.583110 53.422089 -11.638030 -5.099145 -9.645518 -7.292023 10.075287 -5.141419 77.853732 -9.090496 8.253042 94.047882 12.133011 -47.463014 3.191378 -1.362795 7.178773 19.820678 -18.294083 6.147699 0.000000 24.103639 0.000000 11.627334 1.092243 -4.596896 0.000000 -5.664081 0.000000 -8.141439 -13.697640 -8.004127 0.000000 31.403699 0.000000 6.039573 -15.031141 0.920838 0.000000 -4.078244 0.000000
-28.665582 92.434424 -77.780682 -36.187700 -0.270732 2.250214 1.170588 4.203867 0.398760 1.076330 4.235825 0.222880 0.409927 4.119620 -0.019016 0.095131 4.061609 -0.209886 14.244992 8.865116 -8.027125 6.110205 -1.386020 -3.814967 1.362172 6.725296 -0.003415 -37.680133 -8.672821 -14.512351 -71.066725 -0.648029 53.457998 -11.620942 -5.123985 -9.684706 -7.289495 10.073860 -5.135726 77.849502 -9.076895 8.262786 94.033032 12.124832 -47.468991 3.175983 -1.384651 7.174888 19.831170 -18.294282 6.145892 0.000000 24.106737 0.000000 11.613145 1.085622 -4.587139 0.000000 -5.664285 0.000000 -8.138357 -13.695278 -8.005227 0.000000 31.403148 0.000000 6.035827 -15.035726 0.909105 0.000000 -4.066812 0.000000
-28.670740 92.434064 -77.773090 -36.190954 -0.268855 2.253431 1.175984 4.200720 0.401990 1.082095 4.233067 0.225571 0.405025 4.117306 -0.022507 0.089354 4.060293 -0.217374 14.243274 8.858499 -8.012915 6.109031 -1.374964 -3.820802 1.359361 6.719545 0.001544 -37.671438 -8.678301 -14.507623 -70.949483 -0.660004 53.437828 -11.675234 -5.191239 -9.705569 -7.285266 10.071037 -5.149060 77.840427 -9.066789 8.292828 94.032899 12.115102 -47.479490 3.179241 -1.426697 7.144809 19.841227 -18.297538 6.145160 0.000000 24.120511 0.000000 11.605193 1.078997 -4.591359 0.000000 -5.655657 0.000000 -8.128313 -13.690575 -8.007882 0.000000 31.401755 0.000000 6.031626 -15.043484 0.905187 0.000000 -4.070605 0.000000
-28.673190 92.432178 -77.765021 -36.191953 -0.267964 2.254036 1.173749 4.196258 0.399596 1.080891 4.228989 0.224351 0.409985 4.121159 -0.015398 0.095096 4.055905 -0.205341 14.232931 8.857399 -8.032417 6.106634 -1.374027 -3.796779 1.364373 6.741744 -0.027983 -37.697540 -8.678196 -14.441634 -70.800476 -0.638950 53.385808 -11.612263 -5.294831 -9.605064 -7.297798 10.088436 -5.123797 77.845658 -9.063543 8.266096 93.993916 12.121383 -47.464921 3.177655 -1.486658 7.152303 19.857544 -18.299989 6.141920 0.000000 24.130902 0.000000 11.598841 1.070779 -4.594552 0.000000 -5.668380 0.000000 -8.115872 -13.686830 -8.009875 0.000000 31.407239 0.000000 6.021112 -15.054971 0.899244 0.000000 -4.054253 0.000000
-28.675729 92.428815 -77.758203 -36.191097 -0.266337 2.254019 1.176674 4.191556 0.407722 1.080342 4.225833 0.226271 0.406871 4.118655 -0.022878 0.094341 4.058204 -0.208721 14.227925 8.858496 -8.024942 6.103637 -1.388608 -3.797877 1.367971 6.758118 -0.037717 -37.722004 -8.665620 -14.401016 -70.712574 -0.692537 53.401983 -11.649081 -5.333574 -9.654514 -7.292005 10.092730 -5.109921 77.845919 -9.065135 8.261453 93.969111 12.126162 -47.454682 3.116846 -1.497247 7.187502 19.866642 -18.300249 6.140854 0.000000 24.138174 0.000000 11.588236 1.063043 -4.591959 0.000000 -5.669304 0.000000 -8.109863 -13.686036 -8.011968 0.000000 31.413104 0.000000 6.017436 -15.057047 0.900709 0.000000 -4.055312 0.000000
-28.679608 92.424652 -77.750983 -36.194381 -0.265773 2.254832 1.177868 4.182020 0.411013 1.080847 4.223171 0.226650 0.409191 4.125635 -0.025136 0.102823 4.075755 -0.193700 14.207994 8.831103 -8.047970 6.095995 -1.384543 -3.792304 1.368625 6.745205 -0.031716 -37.762978 -8.652753 -14.405807 -70.638031 -0.737921 53.415722 -11.646431 -5.335093 -9.628792 -7.301206 10.078522 -5.115896 77.839446 -9.053730 8.258483 93.963169 12.116948 -47.463564 3.102901 -1.522307 7.181535 19.877759 -18.302558 6.140371 0.000000 24.149918 0.000000 11.577663 1.060857 -4.584439 0.000000 -5.686828 0.000000 -8.095614 -13.684968 -8.014771 0.000000 31.419582 0.000000 6.008817 -15.059888 0.915211 0.000000 -4.067442 0.000000
-28.684232 92.424994 -77.744989 -36.193706 -0.263976 2.256548 1.177144 4.176560 0.410871 1.082968 4.223662 0.229019 0.413632 4.125747 -0.018396 0.098682 4.076882 -0.212036 14.206623 8.826508 -8.030533 6.093710 -1.403144 -3.799666 1.394778 6.768335 -0.053498 -37.832894 -8.629247 -14.327011 -70.510711 -0.783720 53.417138 -11.707942 -5.388499 -9.590992 -7.303509 10.079584 -5.092314 77.846375 -9.048787 8.259116 93.943200 12.116441 -47.460185 3.134862 -1.558999 7.156375 19.874535 -18.304483 6.140854 0.000000 24.161121 0.000000 11.578856 1.056627 -4.596111 0.000000 -5.682866 0.000000 -8.091264 -13.680979 -8.018347 0.000000 31.419131 0.000000 6.006451 -15.065199 0.920214 0.000000 -4.058499 0.000000
-28.685596 92.423517 -77.738922 -36.196475 -0.263284 2.258126 1.177904 4.169104 0.415839 1.085938 4.227790 0.235503 0.411050 4.127293 -0.016173 0.091104 4.081403 -0.225654 14.203535 8.805389 -8.048196 6.093626 -1.408445 -3.782200 1.415375 6.721480 -0.037803 -37.851864 -8.600869 -14.348956 -70.385051 -0.798820 53.396419 -11.767293 -5.478414 -9.556526 -7.308160 10.073807 -5.095154 77.874339 -9.063133 8.256427 93.912954 12.119127 -47.451045 3.084094 -1.537138 7.229959 19.883281 -18.307728 6.138627 0.000000 24.172989 0.000000 11.570688 1.050627 -4.580606 0.000000 -5.700424 0.000000 -8.091064 -13.677958 -8.020442 0.000000 31.421377 0.000000 6.003135 -15.081941 0.907878 0.000000 -4.031362 0.000000
-28.687854 92.420770 -77.733124 -36.196461 -0.261592 2.257588 1.179088 4.167224 0.415749 1.086786 4.223670 0.234799 0.407250 4.126806 -0.018211 0.091329 4.079996 -0.215406 14.198879 8.804593 -8.042790 6.090130 -1.428160 -3.791823 1.418873 6.734297 -0.037870 -37.865437 -8.625892 -14.337939 -70.297278 -0.803707 53.378549 -11.755207 -5.560106 -9.553050 -7.300357 10.077563 -5.083899 77.859015 -9.057514 8.262145 93.913152 12.124490 -47.445602 3.118684 -1.577020 7.184925 19.882805 -18.305899 6.140032 0.000000 24.177323 0.000000 11.577239 1.039718 -4.595554 0.000000 -5.701544 0.000000 -8.090735 -13.677284 -8.022057 0.000000 31.423800 0.000000 6.002994 -15.083474 0.922386 0.000000 -4.024326 0.000000
-28.690549 92.417365 -77.727960 -36.197752 -0.260443 2.257435 1.189159 4.161699 0.426612 1.093824 4.216417 0.239767 0.407578 4.132414 -0.020667 0.088038 4.085327 -0.230115 14.183563 8.791789 -8.038356 6.083269 -1.438179 -3.785629 1.405490 6.732078 -0.047254 -37.887112 -8.567725 -14.294385 -70.231576 -0.853391 53.396990 -11.718031 -5.601378 -9.503219 -7.315777 10.074195 -5.077297 77.863411 -9.059371 8.262472 93.903093 12.122416 -47.445315 3.114340 -1.624225 7.202259 19.883310 -18.304745 6.141498 0.000000 24.184665 0.000000 11.580936 1.025357 -4.616383 0.000000 -5.713934 0.000000 -8.094439 -13.676540 -8.023549 0.000000 31.429498 0.000000 6.012087 -15.096764 0.924849 0.000000 -4.025686 0.000000
-28.691867 92.416925 -77.724091 -36.201519 -0.259805 2.259175 1.189055 4.160581 0.423522 1.096603 4.221513 0.239995 0.405600 4.132004 -0.020156 0.091029 4.082292 -0.214054 14.173496 8.777318 -8.049951 6.078433 -1.440285 -3.796261 1.396950 6.709713 -0.055693 -37.884431 -8.554506 -14.319869 -70.188797 -0.866650 53.395760 -11.704693 -5.598956 -9.485796 -7.315734 10.070873 -5.086604 77.856157 -9.038737 8.269216 93.927132 12.117645 -47.455539 3.139034 -1.640532 7.134494 19.881310 -18.306574 6.141951 0.000000 24.194296 0.000000 11.584799 1.019068 -4.629976 0.000000 -5.690148 0.000000 -8.084989 -13.673239 -8.026304 0.000000 31.429156 0.000000 6.004741 -15.097786 0.922129 0.000000 -4.031391 0.000000
